<?xml version="1.0" standalone="no"?>
<!DOCTYPE svg PUBLIC "-//W3C//DTD SVG 20010904//EN"
 "http://www.w3.org/TR/2001/REC-SVG-20010904/DTD/svg10.dtd">
<svg version="1.0" xmlns="http://www.w3.org/2000/svg"
 width="512.000000pt" height="512.000000pt" viewBox="0 0 512.000000 512.000000"
 preserveAspectRatio="xMidYMid meet">

<g transform="translate(0.000000,512.000000) scale(0.100000,-0.100000)"
fill="#000000" stroke="none">
<path d="M1890 4939 c-135 -26 -271 -134 -336 -268 -21 -42 -45 -81 -53 -88
-9 -7 -41 -13 -71 -13 -334 -3 -571 -318 -475 -632 10 -36 11 -55 3 -78 -13
-39 -35 -50 -95 -50 -303 -1 -540 -268 -496 -557 13 -85 7 -102 -63 -175 -168
-176 -175 -459 -16 -639 75 -84 74 -103 -2 -204 -208 -274 -120 -680 184 -847
33 -18 64 -42 70 -53 5 -11 14 -53 20 -93 24 -174 132 -335 285 -423 50 -29
148 -62 216 -73 54 -9 67 -24 104 -124 78 -209 222 -350 430 -419 68 -22 98
-27 200 -27 142 -1 211 15 334 75 159 78 297 250 330 411 8 38 11 617 9 1994
l-3 1940 -38 78 c-100 200 -317 308 -537 265z m-44 -953 c21 -18 28 -32 28
-61 0 -54 -34 -80 -114 -88 -81 -9 -138 -35 -200 -93 -60 -56 -98 -132 -107
-215 -8 -79 -34 -113 -88 -113 -29 0 -43 7 -63 29 -22 27 -24 35 -19 95 18
216 179 405 389 456 87 21 143 18 174 -10z m-91 -1018 c164 -41 316 -195 360
-363 24 -92 20 -161 -10 -190 -31 -32 -75 -32 -110 -2 -21 18 -28 35 -35 88
-21 173 -142 294 -315 314 -75 8 -105 33 -105 84 1 83 70 106 215 69z m-500
-523 c32 -31 32 -75 3 -109 -18 -21 -38 -28 -96 -36 -88 -12 -153 -43 -210
-101 -55 -56 -80 -110 -97 -206 -15 -88 -35 -113 -90 -113 -25 0 -40 8 -59 31
-30 35 -31 57 -11 154 31 146 127 276 255 344 80 43 139 59 218 60 54 1 66 -2
87 -24z m340 -932 c122 -38 231 -122 294 -227 41 -68 71 -171 71 -244 0 -43
-5 -58 -25 -77 -31 -32 -75 -32 -111 -2 -22 20 -29 36 -35 92 -11 87 -47 161
-103 213 -60 56 -111 80 -198 93 -89 13 -118 35 -118 89 0 36 25 71 60 83 23
7 109 -3 165 -20z"/>
<path d="M3030 4939 c-74 -14 -186 -76 -245 -134 -33 -34 -68 -83 -92 -131
l-38 -78 -3 -333 -3 -333 190 0 190 0 20 26 c16 21 21 41 21 88 l0 62 -51 34
c-35 24 -62 53 -83 90 -27 47 -31 65 -31 125 1 80 22 130 77 181 94 89 224 96
329 19 146 -106 127 -343 -33 -426 l-38 -19 0 -78 c0 -93 -27 -160 -85 -211
-68 -59 -90 -64 -307 -69 l-198 -4 0 -169 0 -169 428 0 428 0 34 52 c48 73
113 111 196 116 113 7 205 -45 250 -143 43 -92 28 -195 -39 -271 -72 -81 -162
-109 -262 -79 -63 18 -135 76 -155 125 l-12 30 -434 0 -434 0 0 -170 0 -170
645 0 645 0 19 38 c74 146 281 176 400 60 70 -69 94 -158 67 -252 -62 -213
-350 -251 -462 -61 l-26 45 -644 0 -644 0 0 -170 0 -170 396 0 396 0 29 -29
c17 -18 29 -40 29 -56 0 -16 -12 -38 -29 -56 l-29 -29 -396 0 -396 0 0 -170 0
-170 434 0 434 0 12 30 c20 49 92 107 155 125 101 30 190 2 262 -79 116 -132
64 -338 -101 -401 -110 -42 -238 1 -306 103 l-34 52 -428 0 -428 0 0 -169 0
-169 198 -4 c217 -5 239 -10 307 -69 58 -51 85 -118 85 -211 l0 -78 38 -19
c160 -83 179 -320 33 -426 -105 -77 -235 -70 -329 19 -55 51 -76 101 -77 181
0 60 4 78 31 125 21 37 48 66 83 90 l51 34 0 62 c0 47 -5 67 -21 88 l-20 26
-190 0 -189 0 0 -243 c0 -186 4 -257 15 -301 43 -163 172 -319 326 -395 123
-60 192 -76 334 -75 102 0 132 5 200 27 198 66 347 205 419 392 15 39 32 83
38 98 14 35 28 43 119 61 110 23 209 76 288 155 101 100 150 198 172 345 6 39
16 78 22 87 7 8 38 30 70 48 303 172 388 573 181 846 -25 33 -50 70 -55 83
-12 31 4 67 52 120 88 95 132 249 111 384 -14 93 -67 200 -130 264 -70 70 -72
77 -59 166 42 293 -192 557 -496 558 -62 0 -83 12 -96 53 -9 26 -8 43 3 75 73
205 -33 464 -232 570 -69 37 -165 62 -242 62 -30 0 -62 6 -71 13 -8 7 -32 46
-53 88 -99 203 -315 311 -536 268z"/>
<path d="M3120 4427 c-14 -7 -31 -25 -38 -41 -40 -82 68 -156 133 -91 37 36
34 86 -6 119 -34 29 -52 32 -89 13z"/>
<path d="M3695 3385 c-32 -31 -32 -75 -1 -111 49 -58 146 -20 146 57 0 70 -94
106 -145 54z"/>
<path d="M4125 2875 c-50 -49 -24 -130 46 -141 81 -13 128 89 65 142 -36 31
-80 31 -111 -1z"/>
<path d="M3724 1870 c-55 -22 -70 -95 -29 -135 51 -52 145 -16 145 54 0 57
-66 102 -116 81z"/>
<path d="M3112 843 c-22 -9 -44 -63 -37 -93 8 -35 33 -58 71 -66 44 -9 94 35
94 82 0 62 -66 102 -128 77z"/>
</g>
</svg>
